<svg height="310" viewBox="0 0 320 310" width="320" xmlns="http://www.w3.org/2000/svg"><path d="m94.146 76.641v18.66l-18.146 4.699 2.667 19.624-15.167 8.841 6.5 17.535-11 13.206 10.5 14.294-8 15.754 14 9.536-2.5 18.71 17.5 8.377 1.5 15.83 19.229 3.511 133.496-8.095 41.504-11.246-4.229-19.699 15-7.388-7-18.915 11.5-10.789-11.5-16.129 7.5-15.958-13.5-14.745 2.229-14.342-16.289-8.912-2.44-14.75-21.25-4.25-132.75-4.691z" fill="#d33833"/><path d="m183.039 42.657 14.629 12.471 17.841-7.157 10.82 15.638 19.225-2.454 6.275 17.74 19.299 2.417 1.301 18.631 18.059 7.124-3.761 18.254 15.586 11.344-8.567 16.633 12.053 14.791-12.788 13.878 7.697 17.231-16.139 10.177 2.818 18.496-18.39 5.784-2.254 18.5-19.387.995-7.173 17.245-19.063-3.861-11.602 14.814-17.44-8.454-15.241 11.372-14.629-12.471-17.84 7.158-10.821-15.638-19.225 2.453-6.274-17.739-19.3-2.417-1.301-18.632-18.058-7.123 3.761-18.254-15.587-11.344 8.567-16.633-12.053-14.791 12.789-13.878-7.698-17.231 16.139-10.178-2.817-18.496 18.389-5.783 2.255-18.501 19.387-.995 7.172-17.245 19.063 3.861 11.602-14.813 17.441 8.454zm-.163 6.341-14.44 10.776-16.525-8.011-10.993 14.036-18.063-3.658-6.796 16.34-18.369.942-2.136 17.53-17.425 5.48 2.67 17.525-15.292 9.643 7.294 16.327-12.118 13.15 11.42 14.015-8.117 15.759 14.769 10.749-3.564 17.296 17.111 6.749 1.233 17.654 18.286 2.29 5.945 16.808 18.216-2.324 10.253 14.817 16.904-6.782 13.861 11.816 14.441-10.775 16.524 8.01 10.993-14.036 18.063 3.658 6.796-16.339 18.369-.943 2.136-17.53 17.425-5.48-2.67-17.525 15.292-9.643-7.293-16.326 12.117-13.15-11.42-14.015 8.117-15.76-14.769-10.748 3.564-17.296-17.111-6.75-1.232-17.653-18.287-2.291-5.945-16.808-18.216 2.325-10.252-14.817-16.905 6.781z" fill="#231f20"/><path d="m151.804 260.421-8.801-26.949-29.614 7.63 4.023-27.671-24.419-4.016 6.187-13.748-22.772-24.713 25.486-15.461-20.047-16.699 24.896-5.555-13.75-25.327 46.674 9.338 6.331-37.344 24.552 17.395 18.702-21.992 14.774 24.801 27.108-13.059 2.442 27.92 30.827-1.867-10.312 26.211 29.215 9.646-17.639 20.125 18.909 19.338-24.18 14.95 4.604 14.959-30.438 12.125 1.859 20.969-27.929-12.459-13.169 25.106-20.103-21.569z" fill="#f0dc00"/><path d="m49.667 206.178-9.334 5.986.667 5.391 15 2.271 22 3.623 16.146 2.392-2.146-8.286z" fill="#9c9a99"/><path d="m128.333 162.333-20.018-18.333-10.315-20-3.854-13.333-5.479-4.334-18.667 3-5 10.291-18.333 2.63-13.667 10.985-9.333 11.094 2 22.378-11.667 13.164-5 16.794 4.667 4.998 30 3.412 29.666 4.336 18.334 8.14z" fill="#fff"/><path d="m90.667 215.667-32.334-9.489-37.333-6.096-10.667 1.585-1.333-18.293 22.333 3.293 21 6.045 23.667 10.662 14.667 6.041z" fill="#dcd9d8"/><path d="m24.667 152.957 15.666-3.043 22.334 3.044 12.333 11.375 8.333 10.667-19.333-10-25.333-4-11 4z" fill="#dcd9d8"/><path d="m79 109.333-2 7.917 3.667 12.75-16.334-7.746 4.667-12.921z" fill="#dcd9d8"/><path d="m149.146 169.086c6.654.537 22.454 1.37 33.664.537 6.824 8.66 34.128 54.977 32.445 60.835-12.055-.541-26.255-9.058-35.424-17.458" fill="#81b0c4"/><path d="m225.814 165.04-16.668 2.5-22.5 2.5-14.584.416-14.166-.416-10.834-3.334-9.583-10.416-7.5-21.25-1.667-4.584-10-3.332-5.834-9.584-4.166-13.75 4.584-12.084 10.832-3.75 8.751 4.168 4.167 9.166 5-.834 1.666-2.082-1.666-9.584-.417-12.084 2.5-16.666-.098-9.52 7.598-12.146 13.333-9.584 23.334-10 25.833 3.75 22.5 16.25 10.417 16.666 6.666 12.084 1.667 30-5 25.834-9.167 22.916-8.75 12.084" fill="#f0d6b7"/><path d="m211.646 237.122-59.584 2.5v10l13.938 34.644-11.438 3.274-41.666-14.168-2.917-5-9.312-46.705-4.437-28.711-2.084-6.666 33.333-22.916 10.417-4.168 9.166 11.25 7.917 7.084 18.333 25.832 3.75 4.584 4.138 8.244 35.029 18.422z" fill="#1b4f9a"/><path d="m207.481 119.624s.971-12.63 4.373-11.659c3.401.971 3.401 4.372 3.401 4.372s-8.26 5.344-7.774 7.287" fill="#f7e4cd"/><path d="m147.062 170.456-35.833 14.544s-6.896.667-11.229 4.254c-3.333 5.746.333 25.413 3 34.079 2.667 8.667 11.333 45 23 54.207l-16.021-7.083-6.729-26.608-14.583-34.434 2.666-26.041 43.646-24.583z" fill="#0a7abe"/><path d="m151.089 206.178 5.557 6.78v25h-6.667s-.833-17.5-.833-19.584.833-9.584.833-9.584" fill="#317bbe"/><path d="m151.229 241.708-18.75.832 5.417 3.75 13.333 2.083" fill="#317bbe"/><path d="m219.562 237.54 23.334-1.25s9.583-24.166 9.583-25.416 8.333-35 8.333-35l-18.75-19.583-3.75-3.333-10 10v38.75z" fill="#1b4f9a"/><path d="m230.396 161.707 29.166 21.667.834-10-22.084-20.417z" fill="#317bbe"/><path d="m238.2 198.79c-1.4 10.81-10.6 26.21-18.638 33.81 4.64-8.4 2.842-66 4.64-67.6s9.725-6.209 9.725-6.209 7.073 25.409 4.273 39.999z" fill="#81b0c4"/><path d="m218.605 234.211-9.166-23.333-9.584-13.75s2.083-5.834 5-5.834h9.584l9.166 3.334-.833 15.416z" fill="#fff"/><path d="m220.396 226.29s-11.667-22.499-11.667-25.832c0 0 2.082-5 5-3.75 2.917 1.25 9.167 4.582 9.167 4.582v-7.916l-14.167-2.918-9.583 1.25 16.25 38.334 3.333.418" fill="#dcd9d8"/><g fill="#d33833"><path d="m234.562 194c-7.069-.208-13.714-1.129-19.307-2.706.38-2.293.591-5.749 1.162-7.4 4.491-2.37 1.189-2.273-1.162-1.694-.055-1.591-1.635-3.912-2.067-5.157 3.974-1.419 15.508-10.905 20.787-7.825 2.515 1.465 4.686 10.087 4.881 14.156.162 3.375-1.481 8.638-2.856 10.426"/><path d="m203.2 181.6c.505 7.841 1.174 10.052 1.121 11.4-4.046 2.77-9.957 6.802-14.721 9.4-2.252 1.228-9.204 5.359-11.6 4.8-1.356-.315-3.458-2.014-4-3.6-1.155-3.396-4.168-10.288-4.4-15.4-.295-6.458-.359-20.312 6.6-18.982 5.614 1.071 11.053 3.407 15.4 5.782 2.656 1.452 7.37 4.565 11.4 4.875"/><path d="m205.438 188.86c-.618-3.518-1.332-4.521-1.055-7.59 9.381-6.255 11.142 10.744 1.055 7.59"/></g><path d="m205.438 188.86c-.618-3.518-1.332-4.521-1.055-7.59 9.381-6.255 11.142 10.744 1.055 7.59z" fill="none" stroke="#d33833" stroke-width="2.5"/><path d="m219.021 191.711s-2.917-4.167-.833-5.417c2.083-1.25 4.167.001 5.417-2.083s0-3.334.416-5.834c.417-2.5 2.501-2.917 4.584-3.333 2.083-.417 7.917-1.25 8.75.833l-2.5-7.5-5-1.666-15.834 9.166-.833 4.584v9.166" fill="#ef3d3a"/><path d="m175.271 205.461c-.5-6.502-1.03-12.996-1.619-19.492-.882-9.7 2.33-8.008 10.738-8.008 1.284 0 7.908 1.532 8.381 2.5 2.273 4.642-3.8 3.61 2.618 7.11 5.417 2.954 14.987-1.794 12.799-8.36-1.226-1.46-6.383-.455-8.232-1.413-3.255-1.688-6.51-3.375-9.765-5.063-4.142-2.149-13.714-5.281-18.129-2.279-11.188 7.609.706 26.62 4.697 34.558" fill="#ef3d3a"/><path d="m218 171.453c-2.966 1.936-4.551 3.479-7.4 5.547-6.317.312-10.4-1.077-15.041-4.705.076-.291.548-1.481.566-1.839 6.763 3.014 17.77-.76 24.599-1.37" fill="#dcd9d8"/><path d="m180.114 129.431c.548-.73 3.563-1.839 7.782.193 0 0-5 .834-4.584 9.17l-2.083-.418s-2.154-7.558-1.115-8.945" fill="#f7e4cd"/><path d="m252.669 75.309-35.731 10.147h-37.107l-20.975 9.902 3.408 14.725s2.489 14.295 5.114 21.045 10.25 18.25 13.875 21.5 10.625 7.75 14.25 8.375 13.786-.307 19.375-1.75c7.75-2 8.996-2.75 12.5-4.75s10.75-7.75 10.75-7.75l-15.229 18.957-16.717 4.746-35.652.997-18.465-3.364-10.007-7.086s-6.091-6.836-9.576-15.333c-3.806-9.279-3.116-19.653-3.812-18.201-1.334 2.78-14.105-4.258-14.105-4.258l-6.25-22.918 4.688-11.044-.333-19.986 6.911-18.515 9.422-12.832 25.667-14.972 18.006-6.695 26.324.351 19.309 4.943 16.222 11.039 13.139 17.511z" fill="#1b4f9a"/><path d="m121.6 86.8s-1.4-10.8.2-20.4c3-9.694 5.424-12.382 9.012-16.835s8.346-9.039 14.188-13.565c5.938-4.6 8.6-6.2 19.562-12.059 10.139-4 22.483-6.341 22.483-6.341l-18.733 1.19-27.912 12.41-17.9 16.653-7.7 11.76-3.571 20.387 5.009 8.79z" fill="#317bbe"/><path d="m132.442 98s-14.538-6.418-16.204 2.75c-1.666 9.166-4.177 15.541 3.741 25.124l-5.417-1.667-5-12.916-1.666-12.5 9.583-10.001 10.833.834 4.13 3.626" fill="#317bbe"/><path d="m130.812 127.54 5.456-5.286s2.462.286 2.878 3.202c.416 2.918 1.666 29.168 19.583 43.335 1.634 1.293-13.333-2.085-13.333-2.085l-13.334-20.832" fill="#317bbe"/><path d="m245.625 198.25-4 3.875-1.187 4.053.187 2.822 7.75-3.75 2.875-3-.375-3.438-2.125-1z" fill="#fff"/><path d="m222.312 219.826 11.663 36.709s-7.249 6.115-9.773 5.265-16.88-38.351-16.88-38.351z" fill="#1b4f9a"/><path d="m220.975 217.555 4.211 9.753s-7.576 8.433-13.394 7.117l-4.47-10.976z" fill="#317bbe"/><path d="m207.322 223.449s8.372 24.701 15.574 36.951c6.463 1.929 15.093 2.484 20.799-.787 8.467-5.614 10.09-7.736 11.623-9.845 5.403-2.11 18.516-5.521 22.182-5.768 3.1.4 6.7 1.6 7.076 11.92-3.576 15.48-40.776 19.88-82.599 33.9-19.977 3.68-37.547-.996-41.887-8.158s-9.583-24.366-9.583-24.366l-3.445-17.046 4.167-2.292 32.337-9.44z" fill="#fff"/><path d="m149.146 245.218 4.354 1.532s13.887 25.583 26.331 33.583c10.434 2.854 45.581-5.762 59.025-8.666 21.54-2.667 41.391-12 45.72-18 7.073 9.36-17.828 20-50.014 23.873-20.208 10-48.992 16.394-54.731 15.46-19.331 1.25-30.685-47.782-30.685-47.782z" fill="#dcd9d8"/><path d="m266.969 200.082 13.278 22.305-1.529 14.811-29.807 8.06s-17.516 9.575-18.24 11.514c-.194-18.231-11.673-36.699-11.673-36.699l8.057-3.385 6.901-.197 11.209-8.777 12.171-6.856z" fill="#fff"/><path d="m272.228 212.164 7.264 12.084 1.971 7.248-4.434 11.171-6.988 3.194-12.312 2.199-7.172 1.708-10.119 4.982-8.368 2.022-1.674-7.004s14.869-7.264 16.691-7.018c0 0-9.919-25.575-13.294-27.028.184-1.28.702-1.459 1.744-2.139 1.188-.312 2.09-.412 3.282-.259 0 0 11.217 25.938 11.738 28.384 0 0 19.655-6.65 21.693-7.084 0 0 3.286-12.941-.022-22.46z" fill="#dcd9d8"/><path d="m255.318 249.768c-.96 1.955-2.424 4.777-4.068 6.107-11.119 6.378-16.688 8.199-21.383 7.125-10.617-2.428 15.885-10.85 17.315-11.482z" fill="#9c9a99"/><path d="m193.231 14.184 4.649.3c10.988.921 21.367 3.974 30.496 10.172 6.691 5.06 17.384 15.744 21.209 23.479 10.103 20.421 9.385 54.55 2.319 79.391-.95 3.335-2.327 8.238-4.251 12.244-1.341 2.797-5.51 8.395-5.004 10.865.521 2.554 9.505 9.375 11.431 11.232 3.469 3.347 10.059 7.788 10.593 12.01.574 4.494-1.98 10.642-3.274 14.978-.819 2.772-1.647 5.542-2.513 8.3 1.815-.484 3.701-.405 5.562-.486 3.682.342 6.197 2.304 8.617 4.877 3.329 4.396 7.773 12.078 10.032 16.866 3.19 6.754 3.95 19.351-2.85 23.295 11.086 11.96 8.173 22.915-5.58 31.96-17.828 2.666-19.349 3.873-37.312 7.333-15.698 4.772-20.709 6.54-33.034 12.153-5.254 3.508-11.244 6.044-17.693 5.234-5.17-.65-9.597-3.131-13.974-5.751l-2.125.453c-13.788 1.474-41.286-9.409-51.799-14.272-3.64-1.687-7.703-3.92-9.063-6.817-1.319-2.805-5.785-15.68-7.417-20.5-4-11.811-2.158-4.493-5.583-17.774-1.299-3.841-.409-1.55-3.002-6.735-12.576-2.521-25.191-4.789-37.998-5.658-11.667 0-14.667.334-18.667-3.778-3-6.888 7.853-11.137 7.853-11.137-4.18-.779-8.391-1.376-12.607-1.927-17.597-2.253-23.45-.725-23.45-.725s-2.565.538-3.152-13.936c3.453-12.147 17.926-23.71 17.926-23.71-13.225-22.211 6.388-33.712 6.388-33.712 7.945-7.18 12.862-15.664 32.643-14.669.734-5.861 1.88-9.658 10.306-12.198 2.952-1.016 6.109-1.01 9.193-1.093h-.001l1.604.125c3.714.318 7.117 1.777 10.443 3.339 4.333 4.755 7.426 19.282 13.501 29.527 6.785 7.426 12.954 15.483 20.736 21.932 1.62-1.07 3.696-1.865 4.82-3.535 1.602-3.256-2.749-7.847-3.912-10.4-1.84-4.036-2.799-7.465-3.063-11.447-6.652-1.052-11.694-5.01-14.74-9.474-5.038-7.388-8.533-21.055-4.173-31.451.342-.819 2.047-2.429 2.298-3.687.587.023-.934-5.768-1.022-8.402-.458-13.513 4.409-26.175 10.409-33.975 7.4-10.4 14.4-14.4 23.6-19.6 4.464-2.631 13.301-6.45 18.6-8.4 6.447-2.327 16.47-4.185 23.301-4.651 5.819-.18 2.908-.126 8.732-.163zm12.948 210.816c-6.53 1.041-10.31 2.524-16.522 3.591l-.001-.002c-14.161 2.908-27.853 7.661-41.209 13.128 8.355 25.343 19.267 41.783 38.598 48.103 19.134 0 19.134-5.554 40.319-12.28 23.193-6.54 16.103-5.873 37.392-8.54 20.737-4.926 18.744-25.05 11.494-23.782-3.25 1.907-11.494 3.782-18.125 4.55l-6.875 1.232s-17.75 7.125-22.389 10.662c4.969 2.992 10.113.034 13.764-1.662l5.375-1.75c-3.275 3.125-11.049 6.618-15.755 6.707-6.659-.366-13.187-5.157-16.016-9.157s-10.05-30.8-10.05-30.8zm-70.026-61.769c-13.865 5.471-32.82 16.644-39.82 20.143-7.734 4.609-4.781 16.961-2.187 30.624 2.615 13.774 14.169 41.517 19.884 53.844 14.792 6.617 30.046 13.056 46.164 15.553-7.626-11.221-9.854-24.745-13.581-37.511-.112-1.282-.017-.415-.413-2.583-.139-1.659-.13-.854-.049-2.416-2.677-2.068-5.521-3.855-8.651-5.135-.034-4.866 6.483 2.146 7-1.127.389-2.475-4.738-3.726-3.5-7.623 3.157 1.147 2.695 2.506 6.062 3.458 2.084-6.759 1.086-13.646 1.53-19.271.231-1.617.227-3.909 1.754-4.95.464-.147.225-.095.717-.154l.421.094c2.094.745-.119 12.753.111 18.077.141 3.216.207 6.589 1.895 9.446 10.812-3.833 21.838-7.066 32.934-9.968-3.429-2.265-6.476-5.066-9.546-7.783-4.445-4.617-5.128-7.074-11.436-15.435-4.817-6.514-14.567-21.139-19.441-26.916-1.133-.807-8.796-10.778-9.846-10.364zm83.371 58.809c-3.032.679-4.461.126-7.275 1.787 2.226 11.175 6.001 26.923 11.647 34.923 2.551 3.614 2.686 1.339 6.5-.75-.146-8.022-4.492-24.83-9.148-33.77zm15.512-5.175-3.858 1.283c-3.712.955-6.038 1.99-8.609 2.689 5.167 10.445 10.945 33.447 10.931 34.663s11.592-4.712 14-5.732c-1.65-8.398-7.809-26.558-12.463-32.902zm24.745-16.316c-1.583.813-4.61 1.626-5.607 2.473-5.907 4.667-13.846 8.194-17.489 12.804 4.077 6.415 10.895 23.599 13.737 32.547 14.578-1.123 18.463-3.992 22.855-6.104 6.034-2.902 8.373-11.549 4.886-19.173-2.341-5.125-6.628-14.8-9.639-17.755-1.795-1.638-3.897-4.341-6.352-4.536zm4.416 33.091c2.363-.108 4.699-.023 7.018.416-5.751 1.358-12.956 2.774-18.546 3.484 2.649-3.411 7.634-3.498 11.528-3.9zm-.561-7.799c2.483.093 1.448.01 3.112.174-5.025 1.639-10.886 3.759-16.191 4.443 2.447-4.389 8.728-4.389 13.079-4.617zm-1.151-12.615h.001-.001c-5.826 2.622-8.925 9.221-15.398 10.601 2.722-6.265 9.233-8.887 15.398-10.601zm-211.488-5.623c.001 0-10.997 3.006-8.997 8.397 4.667 3.778 10-.333 18 1.555 10.623 1.435 21.156 3.447 31.629 5.719-1.536-2.783-.697-1.172-2.439-4.873-12.281-5.029-25.301-7.843-38.192-10.798zm147.951-8.224c-14.357 9.788-13.51 9.308-14.91 9.861-1.532.361-3.074.682-4.641.835l3.412 3.922c3.868 2.875 8.074 5.253 12.355 7.45l1.409-.368c4.483-.457 9.089-.469 13.437-1.785-2.786-7.107-6.686-13.684-11.06-19.913zm14.039-7.274c-2.587-.276-4.784 2.979-8.15 1.571-.772.853-1.473 1.776-2.259 2.609 5.243 6.456 8.374 14.24 11.673 21.79l.649-.168c3.572-.811 1.434-.347 6.423-1.334.806-6.741.918-13.544 1.216-20.322-4.234.269-6.582-3.829-9.55-4.144zm3.658 17.31c1.266 0 2.293 1.027 2.293 2.293 0 1.265-1.027 2.291-2.293 2.291-1.265 0-2.291-1.026-2.291-2.291 0-1.266 1.026-2.293 2.291-2.293zm-2.291-10.625c1.266 0 2.292 1.028 2.292 2.293s-1.026 2.291-2.292 2.291c-1.265 0-2.292-1.026-2.292-2.291s1.027-2.293 2.292-2.293zm22.475-3.14-3.116.857c-7.116-.248-5.824-.651-7.954.138-.139 6.452-.868 12.871-1.635 19.274 2.303-.529 4.595-1.051 6.69-2.253 2.543-4.614 4.169-9.621 5.586-14.666.278-1.945.128-.83.431-3.349zm-155.269-87.258c-4.276.198-8.055 1.921-11.608 4.177-4.455 6.224-1.567 9.928-1.567 9.928s15.082 6.244 23.284 16.823c6.3 9.723 4.078 10.479 4.078 10.479s-5.573-6.512-13.757-13.986c-11.526-8.656-25.082-12.685-25.082-12.686 0 .001-14.903-.918-22.794 11.037-15.414 7.4-6.09 28.986-6.09 28.986 3.608-2.182 5.117-4.574 15.993-6.35 12.129.741 19.627 6.695 25.597 10.428-9.234-1.543-24.496-8.583-37.499-2.61-7.174 3.033-7.224 4.324-15.854 14.521-8.837 15.326-4.29 20.322-4.29 20.322s22.441-.504 47.671 6.438c9.31 2.463 18.587 4.992 27.767 7.902l-.409-1.468c-1.357-5.429-4-13.543-.667-26.666 2.667-12.334 16.827-10.805 21.563-14.214 7.322-5.271 7.141-4.242 15.071-8.999.678-.405 1.372-.784 2.062-1.169-6.962-6.288-13.51-12.997-19.898-19.859-5.9-9.944-9.131-24.176-12.798-30.426-3.752-2.191-6.519-2.514-10.772-2.608zm156.247 48.796c-1.22 1.535-.505.751-2.203 2.299 1.948 2.416 2.642 5.612 3.196 8.59 2.975 5.598 3.009 17.018 1.331 23.034-.767 5.577-1.708 11.156-3.37 16.549l-1.101 3.043 1.417-.899.02-.059.578-1.346s1.831-3.204 2.7-5.524 3.125-4.5 6.25-6c3.3-.437 4.437.563 4.437.563 1.607 1.352 1.607 1.352 2.188 2.062l.449-.264c1.294-3.99 2.204-8.098 3.185-12.174.463-2.306 1.723-7.331 1.44-9.383-.504-3.675-5.49-6.4-8.026-8.673-4.673-4.197-7.615-7.891-12.489-11.816zm10.193 41.602c-3.275 1.292-4.025 2.146-5.4 4.584-.688 2.498-1.538 3.876-1.538 3.876 5.528-3.877 5.486-4.411 9.495-6.75-.069-1.342-1.38-1.329-2.557-1.71zm-72.118-27.339c-.648.181-1.363.201-1.945.538-4.05 2.342-3.008 11.813-2.848 15.526.232 5.112 2.891 10.519 4.046 13.915.542 1.586.664 3.269 2.02 3.583 2.396.559 10.301-2.602 12.554-3.831 4.764-2.597 8.46-6.722 12.506-9.492.053-1.348.104-2.694.158-4.041-2.433-1.213-5.244-2.073-8.815-2.229 2.422-1.219 5.986-1.201 8.194-2.651.021-.54.043-1.079.062-1.614-4.03-.31-5.566-2.105-8.222-3.558-4.347-2.375-10.877-4.961-16.491-6.032zm-23.809-1.397c9.284 15.35 11.74 17.546 13.327 20.402 1.475 2.25 3.078 4.419 4.647 6.605-1.788-6.14-.921-2.846-2.529-9.902-.456-3.365-.591-5.957-.518-8.159.619-7.313.656-5.299.613-6.185-2.856-.439-2.601-.333-3.413-.415l-.114.01c.001.001-8.424-.174-12.011-2.354zm78.111-.373c-5.906 1.003-9.996 5.879-15.296 8.202.432 1.246 1.146 2.232 1.201 3.823 2.351-.579 5.214-.182 7.251.819-2.356.264-4.968.246-6.527 1.369-.571 1.651.14 3.901-.24 6.193 5.592 1.578 11.98 2.418 19.05 2.625 1.375-1.787 1.844-5.192 1.681-8.567-.195-4.069-1.264-12.436-3.779-13.901-1.744-.737-.661-.418-3.339-.561zm-21.585 10.192c-1.426.029-2.637.679-3.821 1.397-.276 3.069.437 4.072 1.055 7.59 6.799 2.956 9.959-7.941 2.768-8.985zm10.101-9.937c-6.827.613-15.423 4.854-22.186 1.84-.017.358-.484.228-.56.519 4.641 3.627 8.089 4.377 14.406 4.065 2.849-2.068 5.375-4.485 8.342-6.421zm-28.849-151.551c-8.927.746-5.12.256-11.451 1.215-12.8 2.2-17.4 5-23.6 7.6s-17.572 7.959-25.2 15.754c-5.572 5.005-10.2 11.646-13.8 22.246-2.6 7.8-.575 14.187.091 22.262 4.508-2.687 8.141-2.416 12.909-.062 1.138.725 2.162 1.685 2.2 2.6-3.592 1.549-3.491 1.356-4.999 1.09-8.491-.929-14.699 6.099-15.085 13.442-.457 8.637 6.633 22.95 16.682 21.957 3.882-.384 4.835-4.275 9.065-4.235 2.292 4.573-3.536 6.01-4.136 9.281-.156.845.484 4.147.856 5.696 1.825 7.541 5.894 17.301 9.899 23.043 5.083 7.282 15.069 8.38 25.813 9.093 1.918-4.133 8.987-3.793 13.593-2.712-5.52-2.186-11.81-5.839-16.063-10.53-4.885-5.383-8.614-8.215-8.864-15.25 9.232 12.807 16.797 19.404 33.585 25.037 12.702 4.26 27.537-1.952 37.297-8.806 4.05-2.849 6.467-7.369 9.346-11.506 8.558-12.584 12.902-27.507 14.27-42.557-4.276-1.962-9.036-1.626-13.621-1.662-1.049.003-2.109-.044-3.155.05l1.594 1.8c1.468 1.605 3.884 3.145 4.153 4.207.775 3.086-2.016 6.783-1.693 8.836-8.147 5.233-17.232 10.925-30.582 9.605-2.853-2.48-3.94-7.999-1.169-11.644 1.443 2.48.536 7.041 4.556 7.727 7.575 1.297 16.392-4.633 21.84-6.706 3.379-5.696-.291-7.791-3.335-11.457-3.091-3.719-1.494-1.758-4.78-5.892l-1.865-1.553s-4.924 2.978-7.973 4.947c-2.838 1.833-5.429 4.099-5.429 4.099s-8.874 1.079-14.307 1.969c-4.492.736-9.621 1.831-16.662 3.631-6.609 1.689-17.331 6.25-17.331 6.25l-3.954-14.817s-.992-8.363-.746-14.633 1.986-19.814 1.986-19.814 3.8.6 28.11 5.514c6.988 1.333 22.69 2.686 31.666 3.267 1.684-.129 2.917.019 5.624-.381 10.002-1.906 17.213-6.603 24.763-13.226-.653-2.706-1.133-5.499-2.324-8.035-.495-1.579-2.425-5.525-4.025-7.925s-6.464-8.664-7-9.2c-5.6-5.6-9.569-7.722-13-10.2-7.2-5.2-15.4-7.4-22.2-8.8-4.228-.373-1.664-.168-7.699-.549zm.208 114.854c4.908 12.323 21.778 10.905 36.005 10.565-.627 1.6-1.984 3.49-3.672 4.173-4.558 1.856-17.132 3.263-23.461-.098-4.014-2.134-6.592-6.955-8.791-9.781-1.062-1.366-6.351-4.852-.081-4.859zm1.349-6.96c7.098 3.732 20.143 4.133 29.791 3.851.517 2.114.505 4.725.525 7.302-12.402.619-27.064-2.45-30.316-11.153zm53.317-4.68c-3.793 7.218-9.157 15.168-20.286 15.4-.227-2.332-.4-5.879.012-7.283 8.508-.817 13.76-5.147 20.274-8.117zm-11.557 39.866c-1.204.848-2.26 1.843-3.193 2.975 1.365-.442 1.55-.585 3.248-.619.307-.006.602.123.903.184-.787-2.238-.408-1.418-.957-2.539z" fill="#231f20"/><path d="m206.179 92.6v-3l-7.033-2.2-9.746-1.4-2.355 1.2 6.955 7.05 7.978 1.051z" fill="#fff"/><path d="m246.2 86-.4-3.4-6.944 2.2-4.294 2.8 1.038 3 4.8 1.2z" fill="#fff"/><path d="m226.416 46.611 4.097.763 1.557 3.571-5.605.935 3.767 6.846.281 3.431-2.573 3.444-7.549 2.162-7.008.187-5.497-2.242-2.97-4.672 2.055-2.055 5.42-.911 1.166 3.036 2.941 1.051h4.978l1.639-3.504-4.184-6.189-8.869 1.635-3.912 1.051-3.29-1.962-.883-2.243 5.909-1.868z" fill="#dcd9d8"/><path d="m225.333 47.374 4.357.528 1.65 2.343-6.318 1.389 3.688 6.458.849 3.364-1.734 3.387-8.661 2.219-7.007-.116-4.271-2.336-1.575-4.474 2.109-1.366h3.153l1.168 3.387 3.757 1.051 6.617-1.051 1.053-3.036-4.842-7.184-8.462 1.09-4.553 1.488-1.818-1.323-.782-1.984 5.228-1.653z" fill="#fff"/></svg>